/* XPM */
static char *dummy[]={
"32 32 73 2",
"Qt c None",
".E c #3a6f8f",
".K c #3b6f8f",
".J c #3b7090",
".P c #3c7090",
".G c #3c7190",
".F c #3d7190",
".D c #3d7191",
".O c #3e7291",
".S c #3e7292",
".N c #3f7292",
".V c #3f7392",
".Q c #407392",
".M c #417493",
".T c #427593",
".L c #437594",
".R c #437694",
".U c #447694",
".I c #477897",
".W c #487a97",
".C c #4a7998",
".X c #51809c",
".H c #5681a0",
".B c #5782a0",
".b c #5a84a2",
".f c #5b84a2",
".d c #5b85a2",
".z c #5b85a3",
".# c #5c85a3",
".a c #5c86a3",
".o c #5c86a4",
".e c #5d86a3",
".c c #5d86a4",
".h c #5d87a4",
".l c #5e87a4",
".v c #5f87a5",
".g c #5f88a5",
".p c #6088a5",
".q c #6189a6",
".A c #628aa6",
".y c #628aa7",
".x c #658ca8",
".0 c #6a90a6",
".w c #6a90ab",
".1 c #6f95a9",
".Z c #7095a9",
".2 c #799bae",
".Y c #8aa8b7",
".3 c #8ba8b6",
".4 c #a2b8c2",
".5 c #abbec7",
".6 c #adc0c8",
".9 c #becdd4",
".8 c #bfced4",
"## c #c0ced5",
"#. c #c1cfd6",
"#c c #c1d0d6",
"#b c #c2d0d6",
"#d c #c6d3d9",
"#a c #c6d4d9",
".7 c #cad6dc",
"#f c #d2dde1",
"#e c #d3dde1",
"#g c #d4dee2",
".i c #d9531e",
".t c #d95420",
".k c #d95520",
".m c #d95521",
".s c #da5521",
".j c #da5622",
".u c #da5623",
".r c #da5723",
".n c #da5926",
"QtQtQtQtQtQtQtQtQtQtQtQtQtQtQtQtQtQtQtQtQtQtQtQtQtQtQtQtQtQtQtQt",
"QtQtQtQtQtQtQtQtQtQtQtQtQt.#.a.b.#.c.#QtQtQtQtQtQtQtQtQtQtQtQtQt",
"QtQtQtQtQtQtQtQtQtQtQt.d.eQtQtQtQtQt.#.f.g.b.bQtQtQtQtQtQtQtQtQt",
"QtQtQtQtQtQtQtQtQtQt.b.hQtQt.i.i.jQtQt.b.b.b.b.cQtQtQtQtQtQtQtQt",
"QtQtQtQtQtQtQtQtQt.c.#QtQtQt.i.i.kQtQtQt.d.b.b.lQtQtQtQtQtQtQtQt",
"QtQtQtQtQtQtQtQtQt.b.gQtQtQtQt.mQtQtQtQt.c.b.cQtQtQtQtQtQtQtQtQt",
"QtQtQtQtQtQtQtQt.d.b.bQt.i.iQtQt.n.i.iQt.o.b.bQtQtQtQtQtQtQtQtQt",
"QtQtQtQtQtQtQtQt.b.b.pQt.i.iQtQtQt.i.iQt.f.b.bQtQtQtQtQtQtQtQtQt",
"QtQtQtQtQtQtQtQtQt.b.qQtQtQt.r.sQtQtQtQt.g.b.aQtQtQtQtQtQtQtQtQt",
"QtQtQtQtQtQtQtQtQt.d.bQtQtQt.i.i.jQtQtQt.b.bQtQtQtQtQtQtQtQtQtQt",
"QtQtQtQtQtQtQtQtQt.p.b.#QtQt.t.u.jQtQt.#.b.vQtQtQtQtQtQtQtQtQtQt",
"QtQtQtQtQtQtQtQtQtQt.v.b.c.wQtQtQt.x.a.#.gQtQtQtQtQtQtQtQtQtQtQt",
"QtQtQtQtQtQtQtQtQtQtQtQt.x.a.b.b.b.a.cQtQtQtQtQtQtQtQtQtQtQtQtQt",
"QtQtQtQtQtQtQtQtQtQtQtQt.y.b.l.yQtQtQtQtQtQtQtQtQtQtQtQtQtQtQtQt",
"QtQtQtQtQtQtQtQtQtQtQt.z.b.gQtQtQtQtQtQtQtQtQtQtQtQtQtQtQtQtQtQt",
"QtQtQtQtQtQtQtQtQtQt.l.b.b.b.A.cQtQtQtQtQtQtQtQtQtQtQtQtQtQtQtQt",
"QtQtQtQtQtQtQtQtQtQt.h.b.b.b.B.C.D.E.E.F.D.GQtQtQtQtQtQtQtQtQtQt",
"QtQtQtQtQtQtQtQtQtQtQt.e.H.I.J.E.E.E.E.E.E.E.E.KQtQtQtQtQtQtQtQt",
"QtQtQtQtQtQtQtQtQtQtQt.L.F.M.N.E.O.E.E.E.E.E.E.E.PQtQtQtQtQtQtQt",
"QtQtQtQtQtQtQtQtQtQt.D.EQtQtQtQtQtQtQtQt.Q.O.E.E.EQtQtQtQtQtQtQt",
"QtQtQtQtQtQtQtQtQt.G.E.RQtQtQtQtQtQtQtQtQtQt.L.E.EQtQtQtQtQtQtQt",
"QtQtQtQtQtQtQtQt.S.E.EQtQtQtQtQtQtQtQtQtQtQtQt.P.EQtQtQtQtQtQtQt",
"QtQtQtQtQtQtQtQt.P.E.EQtQtQtQtQtQtQtQtQtQtQtQt.E.QQtQtQtQtQtQtQt",
"QtQtQtQtQtQtQtQt.E.E.EQtQtQtQtQtQtQtQtQtQtQt.J.JQtQtQtQtQtQtQtQt",
"QtQtQtQtQtQtQtQt.P.E.E.NQtQtQtQtQtQtQtQt.T.J.PQtQtQtQtQtQtQtQtQt",
"QtQtQtQtQtQtQtQtQt.E.E.E.UQtQtQtQt.M.O.D.P.OQtQtQtQtQtQtQtQtQtQt",
"QtQtQtQtQtQtQtQtQtQt.V.E.E.E.E.E.E.E.W.XQtQtQtQtQtQtQtQtQtQtQtQt",
"QtQtQtQtQtQtQtQtQtQtQt.Y.Z.0.0.1.2.3.4.5.6QtQtQtQtQtQtQtQtQtQtQt",
"QtQtQtQtQtQtQtQtQt.7.8.9.9#.#####a#b###c##.9#dQtQtQtQtQtQtQtQtQt",
"QtQtQtQtQtQtQtQtQt#e#e#fQtQtQtQtQtQtQtQtQt#g#e#gQtQtQtQtQtQtQtQt",
"QtQtQtQtQtQtQtQtQtQtQtQtQtQtQtQtQtQtQtQtQtQtQtQtQtQtQtQtQtQtQtQt",
"QtQtQtQtQtQtQtQtQtQtQtQtQtQtQtQtQtQtQtQtQtQtQtQtQtQtQtQtQtQtQtQt"};
